<?xml version="1.0" encoding="UTF-8"?>
<svg id="Layer_1" xmlns="http://www.w3.org/2000/svg" viewBox="0 0 369.69 34.23">
  <defs>
    <style>
      .cls-1 {
        fill: #161614;
      }
    </style>
  </defs>
  <path class="cls-1" d="M55.27,34.23c-1.99-.43-3.97-.87-5.81-1.79-6.38-3.19-10.26-10.5-9.2-17.36,1.25-8.07,6.56-13.64,14.13-14.83,10.17-1.6,19.34,6.25,19.39,16.57.04,6.74-2.9,11.79-8.6,15.28-2.01,1.23-4.3,1.66-6.56,2.14h-3.36ZM58.4,3.53c-5.13-.03-8.25,1.27-10.68,3.93-3.54,3.88-4.34,8.52-3.16,13.52,2.23,9.45,13.82,13.02,20.99,6.48,3.33-3.04,4.5-6.94,4.34-11.35-.26-7.08-5.93-12.59-11.48-12.58Z"/>
  <path class="cls-1" d="M243.86,34.23c-1.86-.45-3.76-.7-5.49-1.62-1.21-.65-2.31-1.42-3.36-2.28-.71-.58-.8-1.05-.05-1.71,1.77-1.57,1.72-1.57,3.58-.14,3.19,2.46,6.76,2.93,10.54,1.72,2.18-.7,3.55-2.24,3.88-4.58.36-2.53-.59-4.42-2.79-5.74-1.87-1.12-3.92-1.8-5.93-2.56-1.61-.61-3.18-1.28-4.65-2.19-2.47-1.52-3.71-3.74-3.58-6.6.15-3.25,1.45-5.97,4.57-7.31,4.99-2.15,9.75-1.28,14.27,1.51.71.44.63.84.1,1.42-1.54,1.67-1.51,1.66-3.5.63-2.55-1.33-5.28-1.63-8.03-.87-3.05.84-4.45,3.9-3.1,6.47.53,1.02,1.45,1.57,2.4,2.09,2.62,1.41,5.54,2.06,8.21,3.32,2.84,1.34,5.25,3.11,5.9,6.44,1.04,5.31-2.16,10.11-7.65,11.54-.65.17-1.31.32-1.97.48h-3.36Z"/>
  <path class="cls-1" d="M300.13,26.63c.52-.38.52-.81.62-1.18,2.2-7.72,4.39-15.44,6.59-23.16.42-1.47,2.16-2.24,3.51-1.56.65.33.27.85.16,1.26-.76,2.73-1.55,5.45-2.33,8.18-2.13,7.41-4.3,14.8-6.36,22.22-.42,1.53-1.44,1.28-2.5,1.35-1.06.07-1.56-.36-1.83-1.41-2.02-7.97-4.09-15.93-6.14-23.9-.1-.38-.21-.75-.54-1.15-.69,2.48-1.38,4.96-2.07,7.44-1.63,5.89-3.3,11.76-4.85,17.67-.38,1.46-1.31,1.31-2.35,1.35-1.05.05-1.67-.21-1.99-1.37-2.74-10.14-5.52-20.26-8.33-30.38-.28-1.01-.1-1.45.99-1.34.08,0,.16,0,.24,0,2.53.02,2.18-.23,2.83,2.2,2.1,7.79,4.2,15.57,6.31,23.36.06.22.15.42.32.91.94-3.38,1.81-6.49,2.67-9.59,1.42-5.08,2.83-10.15,4.25-15.23.47-1.68.49-1.59,2.55-1.68,1.34-.06,1.57.69,1.83,1.69,1.94,7.5,3.91,14.99,5.87,22.48.15.57.34,1.14.54,1.83Z"/>
  <path class="cls-1" d="M130.01,18.34c3.45-4.14,6.7-8.03,9.94-11.92,1.36-1.63,2.7-3.26,4.06-4.88.62-.74,3.82-1.32,4.59-.82.58.38.04.69-.17.95-1.65,2-3.33,3.98-4.99,5.98-1.41,1.69-2.79,3.4-4.23,5.05-.59.68-.61,1.22-.15,2.01,3.46,5.85,6.86,11.72,10.29,17.58.75,1.29.68,1.41-.83,1.43-.4,0-.8-.04-1.2,0-1.05.12-1.69-.34-2.21-1.25-2.68-4.68-5.4-9.33-8.11-14-.2-.35-.42-.68-.61-1.03-.35-.67-.68-.65-1.14-.08-1.53,1.89-3.09,3.77-4.66,5.63-.49.58-.69,1.21-.69,1.97.03,2.4.02,4.79,0,7.19,0,1.43-.13,1.54-1.59,1.56-.24,0-.48-.02-.72,0-.95.08-1.35-.28-1.35-1.3.03-10.15.02-20.29,0-30.44,0-.96.29-1.45,1.3-1.34.12.01.24,0,.36,0q2-.01,2.01,1.95c0,4.91,0,9.83,0,14.74,0,.23.04.46.1,1Z"/>
  <path class="cls-1" d="M165.62,17.14c0-4.99.03-9.99-.02-14.98-.01-1.13.35-1.54,1.51-1.53,5.44.05,10.88.02,16.32.02,1.42,0,1.4.06,1.47,1.77.04,1.13-.22,1.66-1.51,1.64-4.2-.07-8.4,0-12.6-.05-1.12-.01-1.57.29-1.53,1.48.07,2.59.08,5.19,0,7.79-.04,1.25.43,1.56,1.6,1.54,4.16-.06,8.32-.03,12.48-.01.52,0,1.27-.22,1.44.5.2.84.28,1.77-.09,2.59-.2.44-.79.29-1.21.29-4.24,0-8.48.04-12.72-.02-1.15-.02-1.53.35-1.5,1.5.07,3.03.06,6.07,0,9.11-.02,1.06.36,1.39,1.39,1.38,4.24-.04,8.48-.02,12.72-.01,1.49,0,1.51.04,1.5,1.85,0,1.66-.04,1.72-1.51,1.72-5.36,0-10.72,0-16.08,0-1.59,0-1.66-.09-1.67-1.73,0-4.95,0-9.91,0-14.86Z"/>
  <path class="cls-1" d="M13.17,27.47c.73-1.89,1.47-3.77,2.18-5.67,2.44-6.46,4.87-12.93,7.3-19.4.6-1.58,2.42-2.37,4.01-1.7.73.31.27.82.12,1.21-1.27,3.36-2.58,6.71-3.87,10.06-2.64,6.86-5.31,13.71-7.88,20.59-.52,1.4-1.54,1.1-2.54,1.17-.97.07-1.41-.39-1.72-1.28C7.32,22.41,3.82,12.38.34,2.35-.24.66-.23.66,1.59.65c.32,0,.64.03.96,0,1.06-.14,1.56.35,1.88,1.35,2.62,8.05,5.29,16.09,7.95,24.12.15.45.32.89.48,1.33.11,0,.21.01.32.02Z"/>
  <path class="cls-1" d="M212.17,18.89c0,4.35,0,8.7,0,13.05,0,1.73-.06,1.79-1.84,1.79-.28,0-.56-.01-.84,0-.81.02-1.15-.38-1.14-1.18.02-.96,0-1.92,0-2.87,0-7.98,0-15.96,0-23.95,0-1.67,0-1.67-1.66-1.67-1.8,0-3.6-.05-5.39.01-1.06.04-1.47-.39-1.36-1.41,0-.08,0-.16,0-.24,0-1.73.01-1.76,1.71-1.76,4.67,0,9.35,0,14.02,0,1.24,0,2.48.03,3.72,0,.85-.02,1.3.28,1.22,1.17-.01.16,0,.32,0,.48,0,1.73-.01,1.75-1.72,1.75-1.76,0-3.52.05-5.27-.02-1.09-.04-1.47.35-1.46,1.44.04,4.47.02,8.94.02,13.41Z"/>
  <path class="cls-1" d="M92.22,17.17c0-4.99,0-9.98,0-14.97,0-1.48.07-1.54,1.56-1.55.4,0,.8.01,1.2,0,.7-.02,1.03.33,1.04,1.01,0,.4.01.8.01,1.2,0,8.5,0,17,0,25.5,0,1.77,0,1.78,1.82,1.78,3.76,0,7.51,0,11.27,0,1.46,0,1.55.13,1.55,1.84,0,1.6-.1,1.72-1.55,1.72-5.11,0-10.23,0-15.34,0-1.44,0-1.56-.13-1.56-1.59,0-4.99,0-9.98,0-14.97Z"/>
  <path class="cls-1" d="M351.35,17.1c0-4.95,0-9.9,0-14.85,0-1.55.05-1.59,1.64-1.6.08,0,.16,0,.24,0,1.75,0,1.76,0,1.76,1.71,0,7.95,0,15.89,0,23.84,0,.84.06,1.68-.01,2.51-.09,1.09.32,1.47,1.43,1.46,3.8-.05,7.59-.03,11.39,0,.6,0,1.45-.31,1.71.45.29.86.24,1.82,0,2.71-.11.41-.57.39-.93.39-5.36,0-10.71,0-16.07.01-1.12,0-1.15-.71-1.15-1.53,0-5.03,0-10.06,0-15.09Z"/>
  <path class="cls-1" d="M331.2,17.22c0,4.99,0,9.98,0,14.97,0,.53.18,1.28-.55,1.41-1,.19-2.07.38-3.02-.19-.31-.19-.24-.66-.24-1.01,0-10.14,0-20.28-.01-30.42,0-.96.37-1.34,1.35-1.35,2.48-.03,2.48-.06,2.48,2.45,0,4.71,0,9.42,0,14.13Z"/>
</svg>