<?xml version="1.0" encoding="UTF-8"?>
<svg id="Layer_1" xmlns="http://www.w3.org/2000/svg" viewBox="0 0 925.32 176.66">
  <defs>
    <style>
      .cls-1 {
        fill: #f4f5ef;
      }
    </style>
  </defs>
  <path class="cls-1" d="M925.32,105.96c-.53.23-1.09.22-1.65.22-5.36,0-10.72-.02-16.07.02-1.11,0-1.84-.36-2.51-1.27-11.01-15.06-22.06-30.1-33.09-45.14-4.28-5.83-8.56-11.66-12.83-17.49-.16-.22-.34-.44-.57-.75-.3.52-.18.99-.18,1.43,0,20.37,0,40.74,0,61.11q0,2.08-2.03,2.08c-5.96,0-11.92,0-17.87,0-1.59,0-1.68-.09-1.68-1.71,0-33.63,0-67.26,0-100.9,0-1.64.03-1.66,1.69-1.66,5.36,0,10.72.01,16.07-.02.88,0,1.46.26,2,.99,9.64,13.09,19.32,26.16,28.98,39.24,5.72,7.74,11.44,15.49,17.16,23.23.23.32.49.62.79,1.01.38-.49.23-.97.23-1.41,0-20.21,0-40.42,0-60.63,0-.4.02-.8,0-1.2-.04-.84.28-1.23,1.18-1.22,6.8.03,13.59.03,20.39.04v104.02Z"/>
  <path class="cls-1" d="M610.77,176.66c-1.99-.43-3.97-.87-5.81-1.79-6.38-3.19-10.26-10.5-9.2-17.36,1.25-8.07,6.56-13.64,14.13-14.83,10.17-1.6,19.34,6.25,19.39,16.57.04,6.74-2.9,11.79-8.6,15.28-2.01,1.23-4.3,1.66-6.56,2.14h-3.36ZM613.9,145.96c-5.13-.03-8.25,1.27-10.68,3.93-3.54,3.88-4.34,8.52-3.16,13.52,2.23,9.45,13.82,13.02,20.99,6.48,3.33-3.04,4.5-6.94,4.34-11.35-.26-7.08-5.93-12.59-11.48-12.58Z"/>
  <path class="cls-1" d="M799.36,176.66c-1.86-.45-3.76-.7-5.49-1.62-1.21-.65-2.31-1.42-3.36-2.28-.71-.58-.8-1.05-.05-1.71,1.77-1.57,1.72-1.57,3.58-.14,3.19,2.46,6.76,2.93,10.54,1.72,2.18-.7,3.55-2.24,3.88-4.58.36-2.53-.59-4.42-2.79-5.74-1.87-1.12-3.92-1.8-5.93-2.56-1.61-.61-3.18-1.28-4.65-2.19-2.47-1.52-3.71-3.74-3.58-6.6.15-3.25,1.45-5.97,4.57-7.31,4.99-2.15,9.75-1.28,14.27,1.51.71.44.63.84.1,1.42-1.54,1.67-1.51,1.66-3.5.63-2.55-1.33-5.28-1.63-8.03-.87-3.05.84-4.45,3.9-3.1,6.47.53,1.02,1.45,1.57,2.4,2.09,2.62,1.41,5.54,2.06,8.21,3.32,2.84,1.34,5.25,3.11,5.9,6.44,1.04,5.31-2.16,10.11-7.65,11.54-.65.17-1.31.32-1.97.48h-3.36Z"/>
  <path class="cls-1" d="M131.85,33.69c0,9.39-.04,18.77.02,28.16.04,5.64.85,11.16,3.31,16.3,3.29,6.88,8.64,10.65,16.42,10.83,5.09.12,9.66-1.05,13.46-4.6,3.62-3.38,5.45-7.73,6.56-12.42.96-4.06,1.26-8.19,1.26-12.36-.01-18.57,0-37.15,0-55.72q0-1.98,1.97-1.98c6,0,12,0,17.99,0,1.56,0,1.6.05,1.6,1.63,0,18.33.08,36.67-.04,55-.05,8.12-.96,16.18-3.57,23.95-2.69,8.01-7.17,14.69-14.38,19.32-4.9,3.15-10.36,4.77-16.09,5.53-7.23.95-14.43.77-21.54-.98-11.38-2.8-19.2-9.74-23.72-20.47-2.58-6.13-3.79-12.59-4.41-19.18-.57-6.02-.44-12.04-.44-18.07-.01-14.94,0-29.88,0-44.82q0-1.9,1.93-1.9c5.92,0,11.84,0,17.75,0q1.88,0,1.89,1.95c0,9.95,0,19.89,0,29.84,0,0,.02,0,.02,0Z"/>
  <path class="cls-1" d="M483.42,107.88c-15.11-.05-26.67-4.41-36.68-12.94-1.46-1.24-2.85-2.57-4.29-3.83-.59-.52-.57-.93-.01-1.47,4.3-4.18,8.58-8.37,12.85-12.58.65-.65,1.05-.38,1.58.13,3.44,3.35,7.02,6.56,11.28,8.85,7.12,3.83,14.59,4.72,22.21,1.82,6.39-2.43,8.84-8.13,7.59-14.05-.62-2.95-2.54-5.1-4.97-6.81-3.91-2.74-8.35-4.34-12.77-5.99-5.58-2.08-11.2-4.07-16.37-7.1-7.53-4.41-12.67-10.56-13.95-19.43-1.17-8.11.06-15.71,5.22-22.33,4.27-5.48,10.03-8.73,16.65-10.49,11.32-3.01,22.34-1.8,33.06,2.71,4.49,1.89,8.55,4.5,12.48,7.33.79.57.91.99.25,1.79-3.54,4.33-7.02,8.71-10.53,13.06-1.02,1.27-1.02,1.23-2.31.22-5.2-4.07-10.8-7.33-17.49-8.16-4.26-.53-8.35-.04-12.1,2.35-4.94,3.15-5.78,10.93-.42,14.76,2.41,1.72,5.08,2.86,7.84,3.82,5.7,1.98,11.47,3.79,16.99,6.23,5,2.21,9.72,4.9,13.6,8.83,4.73,4.79,7.29,10.58,7.94,17.28.57,5.86-.12,11.5-2.71,16.8-3.51,7.19-9.37,11.92-16.58,15.08-6.46,2.83-13.27,4.07-18.37,4.11Z"/>
  <path class="cls-1" d="M578.31,34.57c-1.56,4.28-3,8.22-4.42,12.15-7,19.38-14.01,38.75-20.98,58.14-.36,1.01-.93,1.33-1.95,1.33-6.96-.03-13.91,0-20.87-.02-1.42,0-1.51-.17-.95-1.54,6.31-15.41,12.62-30.82,18.93-46.23,7.52-18.37,15.04-36.73,22.52-55.11.4-.99.88-1.42,2.01-1.41,4.88.06,9.75.05,14.63,0,1.07-.01,1.53.39,1.89,1.36,10.52,28.04,21.07,56.07,31.62,84.1,2.19,5.83,4.39,11.66,6.58,17.49.45,1.21.37,1.33-.88,1.33-7.4.01-14.79,0-22.19.02-1,0-1.38-.45-1.68-1.32-4.54-13.26-9.1-26.51-13.67-39.76-3.26-9.48-6.54-18.95-9.81-28.42-.21-.6-.44-1.18-.79-2.12Z"/>
  <path class="cls-1" d="M49.47,34.59c-1.21,3.34-2.32,6.37-3.42,9.4-6.88,19.04-13.76,38.08-20.64,57.12-.48,1.31-.98,2.62-1.41,3.95-.24.75-.67,1.12-1.48,1.12-7.2,0-14.39,0-21.59,0-1.28,0-.97-.69-.67-1.41,3.05-7.47,6.11-14.93,9.16-22.4,4.57-11.16,9.13-22.32,13.7-33.49,6.23-15.23,12.47-30.45,18.68-45.69.39-.96.9-1.32,1.95-1.31,4.92.05,9.84.04,14.75,0,.95,0,1.41.32,1.75,1.22,12.7,33.83,25.43,67.66,38.15,101.48.53,1.41.42,1.58-1.11,1.58-7.24,0-14.47-.01-21.71.02-.99,0-1.49-.32-1.82-1.29-4.36-12.77-8.76-25.53-13.16-38.29-3.54-10.27-7.09-20.53-10.64-30.8-.1-.3-.23-.59-.48-1.23Z"/>
  <path class="cls-1" d="M231.39,63.14c0-13.74,0-27.48,0-41.22q0-1.78-1.8-1.78c-7.08,0-14.16,0-21.23,0-1.65,0-1.68-.03-1.68-1.67,0-5.03.02-10.07-.02-15.1,0-1.06.29-1.47,1.42-1.47,22.67.03,45.35.03,68.02,0,1.13,0,1.43.42,1.43,1.48-.04,5.07-.01,10.15-.02,15.22,0,1.42-.13,1.55-1.6,1.55-7.04,0-14.08,0-21.11,0q-1.99,0-2,1.96c0,27.12,0,54.24,0,81.37,0,.36,0,.72,0,1.08-.01,1.53-.11,1.64-1.63,1.64-6.08,0-12.16-.02-18.23.03-1.22,0-1.57-.4-1.56-1.6.04-13.82.02-27.64.02-41.46Z"/>
  <path class="cls-1" d="M641.68,54c0-16.73,0-33.47,0-50.2q0-1.89,1.93-1.89c5.88,0,11.76,0,17.63,0q1.86,0,1.86,1.84c0,27.36,0,54.72,0,82.07q0,2.13,2.15,2.13c12.91,0,25.83,0,38.74,0q1.8,0,1.8,1.78c0,4.95,0,9.9,0,14.86,0,1.46-.12,1.58-1.56,1.58-20.35,0-40.7,0-61.05.03-1.27,0-1.52-.5-1.52-1.64.03-16.85.02-33.71.02-50.56Z"/>
  <path class="cls-1" d="M305.79,53.99c.04,8.6,2.36,16.46,7.65,23.35,3.1,4.05,7.02,7.08,11.69,9.12,1.11.49,1.45,1.05,1.18,2.28-1.15,5.22-2.19,10.47-3.27,15.71-.3,1.47-.32,1.49-1.82,1.05-7.7-2.3-14.56-6.09-20.56-11.46-8.71-7.8-14.37-17.42-16.66-28.85-3.39-16.89.22-32.24,11.2-45.59,9.24-11.23,21.36-17.37,35.75-19.14,3.78-.47,7.57-.54,11.36-.19.36.03.71.12,1.07.14.99.05,1.16.56.97,1.45-.82,3.79-1.59,7.58-2.37,11.37-.3,1.45-.65,2.88-.89,4.34-.17,1.05-.62,1.48-1.74,1.41-4.4-.25-8.71.25-12.83,1.88-9.21,3.66-15.11,10.46-18.46,19.61-1.6,4.35-2.28,8.88-2.26,13.52Z"/>
  <path class="cls-1" d="M763.32,107.89c-1.27.12-2.94-.18-4.61-.23-.84-.03-1.02-.43-.86-1.17,1.15-5.51,2.29-11.02,3.41-16.54.18-.89.74-1.01,1.49-.99,3.09.12,6.15-.12,9.14-.99,9.44-2.75,16.07-8.81,19.94-17.69,4.98-11.43,4.73-22.95-.75-34.18-3.1-6.36-7.9-11.19-14.35-14.26-.95-.45-1.15-.97-.93-1.96,1.17-5.42,2.3-10.86,3.4-16.3.21-1.02.64-1.2,1.57-.87,20.59,7.24,33.14,21.52,36.77,43.03,2.56,15.15-1.16,29.07-10.57,41.26-8.81,11.39-20.54,18-34.76,20.22-2.81.44-5.63.68-8.89.67Z"/>
  <path class="cls-1" d="M763.71.02c1.57-.1,3.11.24,4.67.24.87,0,1.09.46.92,1.25-1.14,5.47-2.29,10.94-3.39,16.42-.21,1.06-.9,1.03-1.69,1.01-7.74-.2-14.58,2.21-20.4,7.27-6.04,5.25-9.59,12-11.07,19.81-1.58,8.38-.84,16.54,2.71,24.36,3.13,6.89,7.97,12.2,14.8,15.57,1.07.53,1.33,1.07,1.08,2.2-1.16,5.3-2.24,10.62-3.35,15.94-.3,1.45-.35,1.48-1.71,1.03-14.34-4.74-24.96-13.84-31.75-27.29-3.41-6.75-5.16-13.96-5.44-21.55-.54-14.39,3.82-27.08,13.29-37.9,8.3-9.47,18.82-15.17,31.21-17.44,3.35-.61,6.73-.83,10.13-.94Z"/>
  <path class="cls-1" d="M392.01,54.07c-.24,15.96-6.11,29.47-18.02,40.16-8.45,7.58-18.47,11.89-29.76,13.21-3.42.4-6.84.61-10.28.3-.97-.09-1.22-.42-1.02-1.35,1.15-5.39,2.27-10.78,3.38-16.18.17-.82.52-1.27,1.43-1.26,14.22.27,26.15-10.02,29.87-24.2,2.63-10.02,1.85-19.8-2.95-29.09-2.83-5.48-6.9-9.85-12.31-12.9-1.8-1.02-1.8-1.03-1.38-3.07,1.09-5.24,2.21-10.47,3.24-15.72.22-1.14.66-1.23,1.62-.88,17.8,6.57,29.34,18.93,34.45,37.21,1.25,4.48,1.82,9.07,1.74,13.75Z"/>
  <path class="cls-1" d="M855.63,169.06c.52-.38.52-.81.62-1.18,2.2-7.72,4.39-15.44,6.59-23.16.42-1.47,2.16-2.24,3.51-1.56.65.33.27.85.16,1.26-.76,2.73-1.55,5.45-2.33,8.18-2.13,7.41-4.3,14.8-6.36,22.22-.42,1.53-1.44,1.28-2.5,1.35-1.06.07-1.56-.36-1.83-1.41-2.02-7.97-4.09-15.93-6.14-23.9-.1-.38-.21-.75-.54-1.15-.69,2.48-1.38,4.96-2.07,7.44-1.63,5.89-3.3,11.76-4.85,17.67-.38,1.46-1.31,1.31-2.35,1.35-1.05.05-1.67-.21-1.99-1.37-2.74-10.14-5.52-20.26-8.33-30.38-.28-1.01-.1-1.45.99-1.34.08,0,.16,0,.24,0,2.53.02,2.18-.23,2.83,2.2,2.1,7.79,4.2,15.57,6.31,23.36.06.22.15.42.32.91.94-3.38,1.81-6.49,2.67-9.59,1.42-5.08,2.83-10.15,4.25-15.23.47-1.68.49-1.59,2.55-1.68,1.34-.06,1.57.69,1.83,1.69,1.94,7.5,3.91,14.99,5.87,22.48.15.57.34,1.14.54,1.83Z"/>
  <path class="cls-1" d="M685.51,160.77c3.45-4.14,6.7-8.03,9.94-11.92,1.36-1.63,2.7-3.26,4.06-4.88.62-.74,3.82-1.32,4.59-.82.58.38.04.69-.17.95-1.65,2-3.33,3.98-4.99,5.98-1.41,1.69-2.79,3.4-4.23,5.05-.59.68-.61,1.22-.15,2.01,3.46,5.85,6.86,11.72,10.29,17.58.75,1.29.68,1.41-.83,1.43-.4,0-.8-.04-1.2,0-1.05.12-1.69-.34-2.21-1.25-2.68-4.68-5.4-9.33-8.11-14-.2-.35-.42-.68-.61-1.03-.35-.67-.68-.65-1.14-.08-1.53,1.89-3.09,3.77-4.66,5.63-.49.58-.69,1.21-.69,1.97.03,2.4.02,4.79,0,7.19,0,1.43-.13,1.54-1.59,1.56-.24,0-.48-.02-.72,0-.95.08-1.35-.28-1.35-1.3.03-10.15.02-20.29,0-30.44,0-.96.29-1.45,1.3-1.34.12.01.24,0,.36,0q2-.01,2.01,1.95c0,4.91,0,9.83,0,14.74,0,.23.04.46.1,1Z"/>
  <path class="cls-1" d="M721.12,159.57c0-4.99.03-9.99-.02-14.98-.01-1.13.35-1.54,1.51-1.53,5.44.05,10.88.02,16.32.02,1.42,0,1.4.06,1.47,1.77.04,1.13-.22,1.66-1.51,1.64-4.2-.07-8.4,0-12.6-.05-1.12-.01-1.57.29-1.53,1.48.07,2.59.08,5.19,0,7.79-.04,1.25.43,1.56,1.6,1.54,4.16-.06,8.32-.03,12.48-.01.52,0,1.27-.22,1.44.5.2.84.28,1.77-.09,2.59-.2.44-.79.29-1.21.29-4.24,0-8.48.04-12.72-.02-1.15-.02-1.53.35-1.5,1.5.07,3.03.06,6.07,0,9.11-.02,1.06.36,1.39,1.39,1.38,4.24-.04,8.48-.02,12.72-.01,1.49,0,1.51.04,1.5,1.85,0,1.66-.04,1.72-1.51,1.72-5.36,0-10.72,0-16.08,0-1.59,0-1.66-.09-1.67-1.73,0-4.95,0-9.91,0-14.86Z"/>
  <path class="cls-1" d="M568.67,169.91c.73-1.89,1.47-3.77,2.18-5.67,2.44-6.46,4.87-12.93,7.3-19.4.6-1.58,2.42-2.37,4.01-1.7.73.31.27.82.12,1.21-1.27,3.36-2.58,6.71-3.87,10.06-2.64,6.86-5.31,13.71-7.88,20.59-.52,1.4-1.54,1.1-2.54,1.17-.97.07-1.41-.39-1.72-1.28-3.46-10.04-6.96-20.07-10.44-30.11-.58-1.68-.57-1.69,1.25-1.69.32,0,.64.03.96,0,1.06-.14,1.56.35,1.88,1.35,2.62,8.05,5.29,16.09,7.95,24.12.15.45.32.89.48,1.33.11,0,.21.01.32.02Z"/>
  <path class="cls-1" d="M767.66,161.32c0,4.35,0,8.7,0,13.05,0,1.73-.06,1.79-1.84,1.79-.28,0-.56-.01-.84,0-.81.02-1.15-.38-1.14-1.18.02-.96,0-1.92,0-2.87,0-7.98,0-15.96,0-23.95,0-1.67,0-1.67-1.66-1.67-1.8,0-3.6-.05-5.39.01-1.06.04-1.47-.39-1.36-1.41,0-.08,0-.16,0-.24,0-1.73.01-1.76,1.71-1.76,4.67,0,9.35,0,14.02,0,1.24,0,2.48.03,3.72,0,.85-.02,1.3.28,1.22,1.17-.01.16,0,.32,0,.48,0,1.73-.01,1.75-1.72,1.75-1.76,0-3.52.05-5.27-.02-1.09-.04-1.47.35-1.46,1.44.04,4.47.02,8.94.02,13.41Z"/>
  <path class="cls-1" d="M647.71,159.6c0-4.99,0-9.98,0-14.97,0-1.48.07-1.54,1.56-1.55.4,0,.8.01,1.2,0,.7-.02,1.03.33,1.04,1.01,0,.4.01.8.01,1.2,0,8.5,0,17,0,25.5,0,1.77,0,1.78,1.82,1.78,3.76,0,7.51,0,11.27,0,1.46,0,1.55.13,1.55,1.84,0,1.6-.1,1.72-1.55,1.72-5.11,0-10.23,0-15.34,0-1.44,0-1.56-.13-1.56-1.59,0-4.99,0-9.98,0-14.97Z"/>
  <path class="cls-1" d="M906.85,159.54c0-4.95,0-9.9,0-14.85,0-1.55.05-1.59,1.64-1.6.08,0,.16,0,.24,0,1.75,0,1.76,0,1.76,1.71,0,7.95,0,15.89,0,23.84,0,.84.06,1.68-.01,2.51-.09,1.09.32,1.47,1.43,1.46,3.8-.05,7.59-.03,11.39,0,.6,0,1.45-.31,1.71.45.29.86.24,1.82,0,2.71-.11.41-.57.39-.93.39-5.36,0-10.71,0-16.07.01-1.12,0-1.15-.71-1.15-1.53,0-5.03,0-10.06,0-15.09Z"/>
  <path class="cls-1" d="M886.7,159.66c0,4.99,0,9.98,0,14.97,0,.53.18,1.28-.55,1.41-1,.19-2.07.38-3.02-.19-.31-.19-.24-.66-.24-1.01,0-10.14,0-20.28-.01-30.42,0-.96.37-1.34,1.35-1.35,2.48-.03,2.48-.06,2.48,2.45,0,4.71,0,9.42,0,14.13Z"/>
</svg>